<?xml version="1.0" encoding="utf-8" ?>
<svg baseProfile="full" height="200mm" version="1.1" viewBox="0,0,200,200" width="200mm" xmlns="http://www.w3.org/2000/svg" xmlns:ev="http://www.w3.org/2001/xml-events" xmlns:xlink="http://www.w3.org/1999/xlink"><defs /><rect fill="#1a1a1a" height="200" width="200" x="0" y="0" /><text alignment-baseline="middle" fill="#e1ed5e" style="dominant-baseline: central; font-size:9.0px; font-family:Arial;" text-anchor="middle" x="100.0" y="100.0">2023</text><line stroke="#e1ed5e" stroke-width="0.3" x1="100.0" x2="100.0" y1="15.0" y2="10.0" /><path d="M 100.0 14.0 a86.0,86.0 0 0,1 42.46469731375804,11.215312516191453" fill="none" id="id25" stroke="none" /><text fill="#e1ed5e" style="font-size:6.75px; font-family:Arial;" text-anchor="middle"><textPath startOffset="22.20632615414155" xlink:href="#id25">January</textPath></text><path d="M 100.36148047927253 79.00311137660856 l 0.087966249560294 -5.109591390251645 a26.110348543533547,26.110348543533547 0 0,0 0.4493135480672143,0.011604443342487418 l -0.1759064328223761 5.107320154766798" fill="#ff3b05" stroke="none" /><path d="M 101.44485096284872 79.0497635885617 l 0.12564445448815034 -1.8218356723264073 a22.82616312138446,22.82616312138446 0 0,0 0.3917511013410707,0.030407425169717645 l -0.15698574519156222 1.8194029849682252" fill="#ff0c01" stroke="none" /><path d="M 102.16513564639614 79.11191278185805 l 0.3546886807232273 -3.421849393393142 a24.440182746788054,24.440182746788054 0 0,0 0.4180822578549243,0.046976413027541526 l -0.4135376420878768 3.415237026895" fill="#ff2303" stroke="none" /><path d="M 103.59715602781102 79.31037775812273 l 1.6500690206167778 -9.490637727594002 a30.63301262582116,30.63301262582116 0 0,0 0.5187261307170686,0.09479388477455891 l -1.8131902724367475 9.460828361468705" fill="#ff790b" stroke="none" /><path d="M 104.66035177308747 79.52364482259891 l 0.7976989198086902 -3.504878430198566 a24.59450919836563,24.59450919836563 0 0,0 0.411988846036541,0.09750444903109268 l -0.8579114528077548 3.4906280690266045" fill="#ff2503" stroke="none" /><path d="M 105.71112130821622 79.79150937346287 l 3.5535467394354843 -12.57403093006142 a34.06652012815554,34.06652012815554 0 0,0 0.5629245586948448,0.164333115090799 l -3.7694615158537563 12.510999486051917" fill="#ffa70f" stroke="none" /><path d="M 106.0581310904928 79.89281104454417 l 0.8368821570311713 -2.777646672466842 a23.900981348065386,23.900981348065386 0 0,0 0.39290325561526035,0.12207695407470881 l -0.88457078535715 2.7628295835096126" fill="#ff1b02" stroke="none" /><path d="M 106.74666289553966 80.11325718540242 l 1.041748167095687 -3.070700018272254 a24.242597391885777,24.242597391885777 0 0,0 0.3940207027666363,0.1374660863959727 l -1.0944508739255967 3.0523130787040738" fill="#ff2003" stroke="none" /><path d="M 107.4271985657038 80.35727306442388 l 1.3925904265689126 -3.6829866927892634 a24.93747369203074,24.93747369203074 0 0,0 0.40020706936153655,0.15527412532240772 l -1.455780660930116 3.6584698635763084" fill="#ff2a04" stroke="none" /><path d="M 108.09893153111575 80.62456947434976 l 1.0847549179318203 -2.5951069556517075 a23.812698587344393,23.812698587344393 0 0,0 0.3768260243532456,0.1613372378803402 l -1.129264700075381 2.5760501898085764" fill="#ff1a02" stroke="none" /><path d="M 110.05341064243156 81.56283822128135 l 9.69456834943451 -17.779073330495002 a41.25043466133446,41.25043466133446 0 0,0 0.6204770773725485,0.34529482178154536 l -9.999169515879094 17.609563111153278" fill="#fdff18" stroke="none" /><path d="M 110.36928655335952 81.73862282372117 l 1.9202804588357751 -3.3818108471191395 a24.888974369455166,24.888974369455166 0 0,0 0.3707310718262986,0.21475136583670904 l -1.978208263127402 3.348255323892381" fill="#ff2904" stroke="none" /><line stroke="#e1ed5e" stroke-width="0.3" x1="143.23703022742887" x2="145.7803849466894" y1="26.81831364943548" y2="22.513508569990506" /><path d="M 143.74570117128098 25.957352633546492 a86.0,86.0 0 0,1 28.547481713284135,27.462654790039103" fill="none" id="id26" stroke="none" /><text fill="#e1ed5e" style="font-size:6.75px; font-family:Arial;" text-anchor="middle"><textPath startOffset="19.985693538727396" xlink:href="#id26">February</textPath></text><path d="M 110.99172775467656 82.1063720568725 l 1.8451281570311344 -3.0037167482843263 a24.525168395948324,24.525168395948324 0 0,0 0.3578115181601728,0.22406153984620844 l -1.8965588275635705 2.9715108671151738" fill="#ff2403" stroke="none" /><path d="M 111.60114157652 82.49532879139004 l 14.095906465591831 -21.268959303703294 a46.51594029130223,46.51594029130223 0 0,0 0.6636170165018925,0.4480771718646081 l -14.459928176500265 21.023170219540013" fill="#bfff1e" stroke="none" /><path d="M 111.90073688211348 82.69761687909136 l 3.218056068954259 -4.678705155921695 a26.678570841240038,26.678570841240038 0 0,0 0.3761282888810846,0.26350190313663263 l -3.2981154974189946 4.622618410021127" fill="#ff4306" stroke="none" /><path d="M 112.19680574252982 82.90503203632743 l 2.4679161346349416 -3.4590160857857764 a25.24916489787302,25.24916489787302 0 0,0 0.3516303110732608,0.2554743751304768 l -2.527091762061991 3.4160224758386244" fill="#ff2e04" stroke="none" /><path d="M 112.77801427241765 83.33499621200491 l 3.478710603711951 -4.5369119295270375 a26.71707943977191,26.71707943977191 0 0,0 0.3625475172168724,0.28297408782119765 l -3.556290676088254 4.476359452482615" fill="#ff4306" stroke="none" /><path d="M 113.06298171725822 83.55741782278167 l 1.8707314280702005 -2.3547193055404034 a24.007380768019615,24.007380768019615 0 0,0 0.32135205444088144,0.25984434615377405 l -1.9109868810755732 2.3221688621224996" fill="#ff1d02" stroke="none" /><path d="M 113.6212207817346 84.01681056812373 l 4.117101916271119 -4.8310221890201355 a27.34738557043514,27.34738557043514 0 0,0 0.355654313813516,0.3084199162632759 l -4.1996500287314 4.759437279337188" fill="#ff4c07" stroke="none" /><path d="M 113.89432698308785 84.25364557470407 l 41.68298094926353 -47.23906327588782 a84.0,84.0 0 0,0 1.0759560496160399,0.9660039649228103 l -42.48994798647556 46.51456030219571" fill="#4dd2ff" stroke="none" /><path d="M 114.42810811169701 84.74124197986012 l 3.2355186142715135 -3.4217927411288653 a25.709272371241617,25.709272371241617 0 0,0 0.31893791653527326,0.3068180230127528 l -3.293939774419205 3.3655916313538103" fill="#ff3505" stroke="none" /><path d="M 114.68862486808459 84.99185889309783 l 3.198553260616831 -3.2681302099002596 a25.57290039579535,25.57290039579535 0 0,0 0.31194578891855607,0.31060619456489447 l -3.2543348497027096 3.2125881646852466" fill="#ff3304" stroke="none" /><path d="M 115.4437574822437 85.77008943001954 l 3.8273258247976623 -3.5265060508535684 a26.20429321770689,26.20429321770689 0 0,0 0.3027923044018411,0.3343508252026677 l -3.887461769815539 3.4601024383813517" fill="#ff3c05" stroke="none" /><path d="M 115.9244219780498 86.31012108654704 l 1.0807271727604275 -0.929077623913888 a22.42518646260769,22.42518646260769 0 0,0 0.24912180915708343,0.2948816449784585 l -1.096559595404628 0.910337029306323" fill="#ff0600" stroke="none" /><path d="M 116.38621287248628 86.86637796730983 l 3.7874769848322334 -3.035679541294278 a25.853898658611087,25.853898658611087 0 0,0 0.27533899693978836,0.34965256500061365 l -3.839170062365986 2.970034582340626" fill="#ff3705" stroke="none" /><path d="M 116.60985879189232 87.15038557335679 l 3.751975443585021 -2.90257963010705 a25.743657685623763,25.743657685623763 0 0,0 0.268131301070492,0.35282936221094074 l -3.801382684879626 2.8375654920150755" fill="#ff3505" stroke="none" /><path d="M 117.04232023915458 87.72973835380427 l 16.096299383391717 -11.58913822754883 a40.83428795538197,40.83428795538197 0 0,0 0.4057905035991677,0.5739618896309239 l -16.293402506794767 11.310349837586113" fill="#fffc17" stroke="none" /><path d="M 117.65298651832404 88.62581576622439 l 1.9477101454338517 -1.25494992052267 a23.316996787577793,23.316996787577793 0 0,0 0.2144857294181777,0.33926491508022344 l -1.969023471097985 1.2212373577282403" fill="#ff1302" stroke="none" /><line stroke="#e1ed5e" stroke-width="0.3" x1="172.23445277983987" x2="176.4835382374775" y1="55.19839476539836" y2="52.563006222186495" /><path d="M 173.08426987136738 54.67131705675599 a86.0,86.0 0 0,1 12.851231095245387,41.99856678651699" fill="none" id="id27" stroke="none" /><text fill="#e1ed5e" style="font-size:6.75px; font-family:Arial;" text-anchor="middle"><textPath startOffset="22.20632615414155" xlink:href="#id27">March</textPath></text><path d="M 117.84615892207809 88.93136811851018 l 2.0276484546314912 -1.2575980314521533 a23.38598220116618,23.38598220116618 0 0,0 0.20923126653136587,0.3439211885202719 l -2.0489955194490808 1.2225090697248" fill="#ff1402" stroke="none" /><path d="M 118.3937258080291 89.86733742301442 l 2.6129651607447406 -1.4394198639020768 a23.983205738104843,23.983205738104843 0 0,0 0.19608200857189723,0.3633101821876784 l -2.6373552685351025 1.3942286983819396" fill="#ff1c02" stroke="none" /><path d="M 118.56541770881063 90.18545643968196 l 2.5199677767945143 -1.3321722087734282 a23.850424598180236,23.850424598180236 0 0,0 0.18874836111159418,0.364601756270891 l -2.542525571066225 1.2885977302421925" fill="#ff1a02" stroke="none" /><path d="M 118.73160827565052 90.50648371742162 l 18.41612802383914 -9.333625211650086 a41.64631519138423,41.64631519138423 0 0,0 0.3185744539467736,0.6422266594800146 l -18.57406249073932 9.015238963671122" fill="#f8ff18" stroke="none" /><path d="M 119.34039704204932 91.81776055985345 l 0.9443828233041132 -0.3995350440136096 a22.025420483678186,22.025420483678186 0 0,0 0.1447157316171481,0.35044062285979 l -0.9511202418074587 0.3832198507005165" fill="#ff0000" stroke="none" /><path d="M 119.47837535516314 92.15188598940014 l 5.286633050181727 -2.130059522599438 a26.699617757103567,26.699617757103567 0 0,0 0.16808865158010372,0.4277672839656991 l -5.322515251643532 2.0387432337379545" fill="#ff4306" stroke="none" /><path d="M 119.61058180528143 92.48833698450437 l 2.632906736558424 -1.0085120550033266 a23.819449316533596,23.819449316533596 0 0,0 0.14336519514418786,0.3841474462958281 l -2.649876520204237 0.9630414716781653" fill="#ff1a02" stroke="none" /><path d="M 119.85752413597 93.16781622104841 l 4.7258102247140865 -1.6259632237439525 a25.997703341033763,25.997703341033763 0 0,0 0.14195081051436315,0.42441485559775216 l -4.75309832900022 1.5443752652238862" fill="#ff3905" stroke="none" /><path d="M 119.97218684219823 93.5106431181261 l 2.757679695290348 -0.8960244489013937 a23.899596026146696,23.899596026146696 0 0,0 0.12375952419041068,0.392351512023328 l -2.772694703248965 0.8484227704516465" fill="#ff1b02" stroke="none" /><path d="M 120.18372546131832 94.20196356495316 l 4.497338733214718 -1.2919187731670227 a25.6792210674144,25.6792210674144 0 0,0 0.11838515813698441,0.42589440165649295 l -4.518910661918065 1.214313068091578" fill="#ff3505" stroke="none" /><path d="M 120.37134235888165 94.90015583598534 l 3.9703380466884086 -0.9939504702173579 a25.09286229211622,25.09286229211622 0 0,0 0.10128817475921752,0.4199048756850688 l -3.9868590217084456 0.925460362872883" fill="#ff2c04" stroke="none" /><path d="M 120.45610955862082 95.25157060432595 l 2.7455722529894784 -0.6373233364184845 a23.818571984450514,23.818571984450514 0 0,0 0.08926930041772724,0.40017676982189426 l -2.7561359404092434 0.5899683970466264" fill="#ff1a02" stroke="none" /><path d="M 120.53481517161879 95.60439243477599 l 7.217680452258277 -1.5449903266314606 a28.381185962993754,28.381185962993754 0 0,0 0.09814579559047681,0.4785937550690167 l -7.243205543763751 1.4205209153990321" fill="#ff5a08" stroke="none" /><path d="M 120.67395015179393 96.31383870115 l 4.034453788363821 -0.7193423272995075 a25.09808135037457,25.09808135037457 0 0,0 0.07217268629348227,0.42596727996565353 l -4.046238336177527 0.6497892590180162" fill="#ff2c04" stroke="none" /><path d="M 120.78858239683441 97.02765380044208 l 5.604106888159581 -0.801273771003931 a26.661100040629606,26.661100040629606 0 0,0 0.06104630283203607,0.45486586309222 l -5.617069190049453 0.7046895658470467" fill="#ff4206" stroke="none" /><path d="M 120.87857604477298 97.74499172005257 l 5.10771580233625 -0.5516631690392565 a26.137420848004364,26.137420848004364 0 0,0 0.044462085711616944,0.44772713539539083 l -5.1164550137300955 0.4636605029394307" fill="#ff3b05" stroke="none" /><path d="M 120.94382443527127 98.46500227214037 l 2.8137014672451515 -0.2062195169962846 a23.82124838253701,23.82124838253701 0 0,0 0.026452258753227906,0.4092047348655844 l -2.8168343170027947 0.15775571787766499" fill="#ff1a02" stroke="none" /><path d="M 120.96714384426684 98.82574320788733 l 2.812351075981145 -0.1575046356959691 a23.81675811613955,23.81675811613955 0 0,0 0.019400894997273124,0.4095222300945009 l -2.8146455792119145 0.10907129897846843" fill="#ff1a02" stroke="none" /><line stroke="#e1ed5e" stroke-width="0.3" x1="184.98032266829074" x2="189.97916517819016" y1="98.17113171792111" y2="98.06355123074" /><path d="M 185.9800911702706 98.14961562048488 a86.0,86.0 0 0,1 -9.607161424134198,41.387399972396054" fill="none" id="id28" stroke="none" /><text fill="#e1ed5e" style="font-size:6.75px; font-family:Arial;" text-anchor="middle"><textPath startOffset="21.466115282336823" xlink:href="#id28">April</textPath></text><path d="M 120.99513854157772 99.54816195383933 l 6.949823528180545 -0.14956770482442167 a27.951432771103978,27.951432771103978 0 0,0 0.0062118637043997406,0.4811156896197454 l -6.951368399002661 0.029915757144213524" fill="#ff5407" stroke="none" /><path d="M 120.99980553446 99.90962569577887 l 3.9406320121509197 -0.01695881781882458 a24.940668503780852,24.940668503780852 0 0,0 -0.0018476316949018429,0.42932453673241266 l -3.940340083166515 -0.05087519711727281" fill="#ff2a04" stroke="none" /><path d="M 120.9904718944345 100.63252640178507 l 5.6760304779500315 0.17104137309042855 a26.678606971601955,26.678606971601955 0 0,0 -0.017783028385878495,0.45890094552920885 l -5.672245316712949 -0.2687195656336436" fill="#ff4306" stroke="none" /><path d="M 120.89721153311464 102.0752229133903 l 7.295152372819558 0.724453946248222 a28.331035510955424,28.331035510955424 0 0,0 -0.05236883783939334,0.4848703984499984 l -7.281601233479113 -0.8499206665830118" fill="#ff5a08" stroke="none" /><path d="M 120.8583938346157 102.4346265915055 l 4.687357774728829 0.5471162340082046 a25.719179916238215,25.719179916238215 0 0,0 -0.05511067998283308,0.43928634334489775 l -4.677245585499148 -0.6277203316404972" fill="#ff3505" stroke="none" /><path d="M 120.76222939487914 103.15116336523771 l 3.007845969553555 0.456512344954284 a24.042292046739632,24.042292046739632 0 0,0 -0.06562200005965066,0.40862825701253536 l -2.9995422151326157 -0.5082198316600243" fill="#ff1d03" stroke="none" /><path d="M 120.5718875245553 104.21870165774334 l 3.883057015115037 0.7963031611573922 a24.963865601543947,24.963865601543947 0 0,0 -0.08994832799498245,0.42020864305227856 l -3.8687746483956116 -0.8630256236258398" fill="#ff2a04" stroke="none" /><path d="M 120.49622156327973 104.57218783832717 l 5.52284790844241 1.2320074683985003 a26.658594474070075,26.658594474070075 0 0,0 -0.10376468692368473,0.44701555549306776 l -5.5008226555881725 -1.326891681240133" fill="#ff4206" stroke="none" /><path d="M 120.41448212921028 104.9243191809786 l 59.6046674167493 14.377656272562183 a82.31421839796413,82.31421839796413 0 0,0 -0.344107478475552,1.3745383244727953 l -59.34834862397869 -15.401522436432375" fill="#4be1ff" stroke="none" /><path d="M 120.13307415673323 105.97154293290107 l 5.414362823673882 1.6059196824176534 a26.64750412242065,26.64750412242065 0 0,0 -0.1342186912230746,0.43863444875850877 l -5.385917359944675 -1.6988811037282192" fill="#ff4206" stroke="none" /><path d="M 120.02730092923936 106.31721596034902 l 5.368251735842224 1.6933088320115348 a26.62898050271462,26.62898050271462 0 0,0 -0.14165064141383324,0.43595584710967283 l -5.338308843412144 -1.785463579099003" fill="#ff4206" stroke="none" /><path d="M 119.79798401119884 107.00284435728193 l 6.836741721350344 2.41825825086385 a28.251828068309642,28.251828068309642 0 0,0 -0.16611501660418146,0.45707718213391524 l -6.794102443740936 -2.5355832300038963" fill="#ff5908" stroke="none" /><path d="M 119.67450827220406 107.3425965602758 l 2.6927706841031434 1.004951609928712 a23.874185396849622,23.874185396849622 0 0,0 -0.147003273421801,0.3837791595729876 l -2.6750731310878355 -1.0511543363348432" fill="#ff1b02" stroke="none" /><path d="M 119.41010516605496 108.01547362559984 l 6.32995939052236 2.613979785878833 a27.848450642783764,27.848450642783764 0 0,0 -0.18678223563573843,0.441498030462439 l -6.284026173694312 -2.7225523420074356" fill="#ff5307" stroke="none" /><path d="M 119.26925614724726 108.34839909993367 l 6.1229542496875515 2.6527679821376475 a27.672911411881735,27.672911411881735 0 0,0 -0.1931291370882365,0.4354552195308003 l -6.076384027868042 -2.7577715381611356" fill="#ff5107" stroke="none" /><path d="M 118.97047184881838 109.00673069616215 l 5.098558757796762 2.4206749329165897 a26.644020600383808,26.644020600383808 0 0,0 -0.20027008964100232,0.41261570270159653 l -5.056135411541046 -2.5080795915834617" fill="#ff4206" stroke="none" /><path d="M 118.81262510543309 109.33194174019688 l 5.624598563223819 2.790063896443728 a27.278579898644136,27.278579898644136 0 0,0 -0.21228103873228413,0.4188506285261593 l -5.575738854705266 -2.886468736672582" fill="#ff4b07" stroke="none" /><path d="M 118.64920377521936 109.65438752849418 l 3.4930670648751185 1.8083036420104461 a24.93338017250094,24.93338017250094 0 0,0 -0.20059200198186747,0.3794444726800186 l -3.4614225546683577 -1.868163129776599" fill="#ff2a04" stroke="none" /><line stroke="#e1ed5e" stroke-width="0.3" x1="174.80103733775053" x2="179.2010983576182" y1="140.37084112569926" y2="142.7455964860345" /><path d="M 175.68104954172406 140.8457921977663 a86.0,86.0 0 0,1 -30.038265399797805,32.042727171017184" fill="none" id="id29" stroke="none" /><text fill="#e1ed5e" style="font-size:6.75px; font-family:Arial;" text-anchor="middle"><textPath startOffset="22.206326154141568" xlink:href="#id29">May</textPath></text><path d="M 118.48025628344425 109.97397251340804 l 7.818825948297901 4.219895757901822 a29.884906269473774,29.884906269473774 0 0,0 -0.24822060260603374,0.4505924942777937 l -7.745028936240358 -4.353858770577421" fill="#ff6f0a" stroke="none" /><path d="M 118.12598468904814 110.60418214915192 l 6.591573326171784 3.856245351594603 a28.636718347955117,28.636718347955117 0 0,0 -0.25257466168022646,0.4233296610434557 l -6.52421778879333 -3.9691371065241627" fill="#ff5e08" stroke="none" /><path d="M 117.75023020441432 111.22182372390056 l 4.774949515339117 3.0187575673432194 a26.649162780840115,26.649162780840115 0 0,0 -0.24846554607437218,0.3856240452035456 l -4.7222791058876945 -3.100503212468218" fill="#ff4206" stroke="none" /><path d="M 117.14729908036423 112.12312394758627 l 4.658177217469952 3.2933268098109827 a26.7047889063116,26.7047889063116 0 0,0 -0.26859957415984925,0.3730613161253935 l -4.6007978509345 -3.3730217313875075" fill="#ff4306" stroke="none" /><path d="M 116.93607887273984 112.41649034213515 l 7.314219114653779 5.3623351473366725 a30.069313066022637,30.069313066022637 0 0,0 -0.3096261985116882,0.41479489129662045 l -7.220831649447 -5.487442918142608" fill="#ff710a" stroke="none" /><path d="M 116.498646956653 112.99209946851258 l 4.444502139321861 3.499887841336091 a26.65710298371603,26.65710298371603 0 0,0 -0.2869854048155859,0.358058418530689 l -4.383598822451421 -3.5758740934450306" fill="#ff4206" stroke="none" /><path d="M 116.0416608686014 113.55231037782055 l 6.980790821447119 5.897509283472374 a30.138493105618846,30.138493105618846 0 0,0 -0.33820769764707254,0.3934119598577394 l -6.878240614229267 -6.016798342491641" fill="#ff720a" stroke="none" /><path d="M 115.56566222782051 114.09645910891815 l 4.197901255617808 3.8016720732464657 a26.66348704460597,26.66348704460597 0 0,0 -0.31101509175884584,0.3375454558775887 l -4.13183975586324 -3.873368783925389" fill="#ff4206" stroke="none" /><path d="M 115.07121518719521 114.62390073753431 l 4.1506059136855065 4.027415714555652 a26.783390596230806,26.783390596230806 0 0,0 -0.32389967308153433,0.32810865877663087 l -4.080665615548436 -4.098264867312948" fill="#ff4406" stroke="none" /><path d="M 114.81725581225074 114.88116024355365 l 3.1839493903985367 3.197681249905373 a25.512504747544938,25.512504747544938 0 0,0 -0.31386461031147667,0.30718258093353 l -3.128434827711266 -3.252013933761475" fill="#ff3204" stroke="none" /><line stroke="#e1ed5e" stroke-width="0.3" x1="143.8653032363475" x2="146.44561519142675" y1="172.8068346515853" y2="177.08958963109032" /><path d="M 144.38136562736335 173.6633856474863 a86.0,86.0 0 0,1 -40.68145358897372,12.25698825130547" fill="none" id="id30" stroke="none" /><text fill="#e1ed5e" style="font-size:6.75px; font-family:Arial;" text-anchor="middle"><textPath startOffset="21.466115282336833" xlink:href="#id30">June</textPath></text><line stroke="#e1ed5e" stroke-width="0.3" x1="102.19456741930631" x2="102.32365962044197" y1="184.97166512339345" y2="189.96999836594603" /><path d="M 102.22038585953345 185.97133177190398 a86.0,86.0 0 0,1 -42.740103519485714,-10.115201625700543" fill="none" id="id31" stroke="none" /><text fill="#e1ed5e" style="font-size:6.75px; font-family:Arial;" text-anchor="middle"><textPath startOffset="22.20632615414155" xlink:href="#id31">July</textPath></text><line stroke="#e1ed5e" stroke-width="0.3" x1="58.666819895761336" x2="56.23545636021788" y1="174.27360380694188" y2="178.64263932499728" /><path d="M 58.180547188652646 175.14741091055294 a86.0,86.0 0 0,1 -31.652253787137756,-30.449443065178592" fill="none" id="id32" stroke="none" /><text fill="#e1ed5e" style="font-size:6.75px; font-family:Arial;" text-anchor="middle"><textPath startOffset="22.20632615414155" xlink:href="#id32">August</textPath></text><line stroke="#e1ed5e" stroke-width="0.3" x1="26.63291911575756" x2="22.317208475507996" y1="142.92168965132927" y2="145.44649492493687" /><path d="M 25.769776987707644 143.4266507060508 a86.0,86.0 0 0,1 -11.730757126820373,-40.83630448921669" fill="none" id="id33" stroke="none" /><text fill="#e1ed5e" style="font-size:6.75px; font-family:Arial;" text-anchor="middle"><textPath startOffset="21.46611528233685" xlink:href="#id33">September</textPath></text><line stroke="#e1ed5e" stroke-width="0.3" x1="15.007084014347285" x2="10.007500721073583" y1="101.09737516637583" y2="101.16192664675087" /><path d="M 14.007167355692545 101.11028546245083 a86.0,86.0 0 0,1 10.666146001902534,-42.60595125391555" fill="none" id="id34" stroke="none" /><text fill="#e1ed5e" style="font-size:6.75px; font-family:Arial;" text-anchor="middle"><textPath startOffset="22.20632615414155" xlink:href="#id34">October</textPath></text><line stroke="#e1ed5e" stroke-width="0.3" x1="26.266209847984243" x2="21.928928074336255" y1="57.711370442889674" y2="55.22380399835377" /><path d="M 25.398753493254645 57.213857153982495 a86.0,86.0 0 0,1 29.58750427330803,-30.492523968695096" fill="none" id="id35" stroke="none" /><text fill="#e1ed5e" style="font-size:6.75px; font-family:Arial;" text-anchor="middle"><textPath startOffset="21.46611528233685" xlink:href="#id35">November</textPath></text><line stroke="#e1ed5e" stroke-width="0.3" x1="56.762969772571076" x2="54.21961505331055" y1="26.818313649435495" y2="22.513508569990535" /><path d="M 56.25429882871897 25.957352633546506 a86.0,86.0 0 0,1 42.265352541879196,-11.944610805530505" fill="none" id="id36" stroke="none" /><text fill="#e1ed5e" style="font-size:6.75px; font-family:Arial;" text-anchor="middle"><textPath startOffset="22.20632615414155" xlink:href="#id36">December</textPath></text></svg>