<?xml version="1.0" encoding="utf-8" ?>
<svg baseProfile="full" height="200mm" version="1.1" viewBox="0,0,200,200" width="200mm" xmlns="http://www.w3.org/2000/svg" xmlns:ev="http://www.w3.org/2001/xml-events" xmlns:xlink="http://www.w3.org/1999/xlink"><defs /><rect fill="#1a1a1a" height="200" width="200" x="0" y="0" /><text alignment-baseline="middle" fill="#e1ed5e" style="dominant-baseline: central; font-size:9.0px; font-family:Arial;" text-anchor="middle" x="100.0" y="100.0">2023</text><line stroke="#e1ed5e" stroke-width="0.3" x1="100.0" x2="100.0" y1="15.0" y2="10.0" /><path d="M 100.0 14.0 a86.0,86.0 0 0,1 42.46469731375804,11.215312516191453" fill="none" id="id25" stroke="none" /><text fill="#e1ed5e" style="font-size:6.75px; font-family:Arial;" text-anchor="middle"><textPath startOffset="22.20632615414155" xlink:href="#id25">January</textPath></text><path d="M 100.36148047927253 79.00311137660856 l 0.0754036741926065 -4.379883948375015 a25.38053297160458,25.38053297160458 0 0,0 0.4367546952617309,0.011280085226746669 l -0.15078500464920516 4.377937071005909" fill="#ff3204" stroke="none" /><path d="M 101.44485096284872 79.0497635885617 l 0.10770100530247728 -1.5616569326899643 a22.565366373077495,22.565366373077495 0 0,0 0.38727521054715497,0.030060009900384866 l -0.1345664052119734 1.5595716606011147" fill="#ff0a01" stroke="none" /><path d="M 102.16513564639614 79.11191278185805 l 0.3040351254571579 -2.9331705976475893 a23.94888574082077,23.94888574082077 0 0,0 0.409677960568761,0.04603209230332162 l -0.35447978953564413 2.927502551873667" fill="#ff1e03" stroke="none" /><path d="M 103.59715602781102 79.31037775812273 l 1.4144205015881657 -8.135267317507376 a29.257309469955487,29.257309469955487 0 0,0 0.49543057099611776,0.09053677013702555 l -1.554246193687184 8.10971506601961" fill="#ff6809" stroke="none" /><path d="M 104.66035177308747 79.52364482259891 l 0.6837784917932742 -3.004342148908405 a24.08117262962442,24.08117262962442 0 0,0 0.40338981529848905,0.09546933627893622 l -0.7353919940542868 2.9921269004886" fill="#ff2003" stroke="none" /><path d="M 105.71112130821622 79.79150937346287 l 3.046060073129903 -10.778317096356828 a32.20047326673003,32.20047326673003 0 0,0 0.532089486547171,0.15533151197754128 l -3.2311397774005006 10.724287255460583" fill="#ff900d" stroke="none" /><path d="M 106.0581310904928 79.89281104454417 l 0.7173659195636316 -2.380967311438114 a23.486688400400865,23.486688400400865 0 0,0 0.38609278011447057,0.1199609061849174 l -0.7582440723888204 2.368266270370676" fill="#ff1702" stroke="none" /><path d="M 106.74666289553966 80.11325718540242 l 0.8929747462813811 -2.6321693249219167 a23.77951780936122,23.77951780936122 0 0,0 0.3864941601444221,0.13484022346262056 l -0.9381509104890768 2.616408248287089" fill="#ff1b02" stroke="none" /><path d="M 107.4271985657038 80.35727306442388 l 1.1937127629474698 -3.1570145371315155 a24.375157914540207,24.375157914540207 0 0,0 0.39118278919007893,0.15177284481648645 l -1.2478787171372157 3.135998988424482" fill="#ff2403" stroke="none" /><path d="M 108.09893153111575 80.62456947434976 l 0.9298396466760219 -2.2244963307751844 a23.411013416421163,23.411013416421163 0 0,0 0.3704695240412188,0.15861571617894477 l -0.967992928507556 2.208161086633449" fill="#ff1602" stroke="none" /><path d="M 110.05341064243156 81.56283822128135 l 8.31007434001909 -15.24002057107394 a38.35844355186837,38.35844355186837 0 0,0 0.5769765856535878,0.3210868452369267 l -8.571175014744712 15.094718328276832" fill="#ffdf14" stroke="none" /><path d="M 110.36928655335952 81.73862282372117 l 1.6460426902392291 -2.8988500086321287 a24.333584843773515,24.333584843773515 0 0,0 0.36245832618878665,0.20995925759467915 l -1.695697748893344 2.8700865936474" fill="#ff2303" stroke="none" /><line stroke="#e1ed5e" stroke-width="0.3" x1="143.23703022742887" x2="145.7803849466894" y1="26.81831364943548" y2="22.513508569990506" /><path d="M 143.74570117128098 25.957352633546492 a86.0,86.0 0 0,1 28.547481713284135,27.462654790039103" fill="none" id="id26" stroke="none" /><text fill="#e1ed5e" style="font-size:6.75px; font-family:Arial;" text-anchor="middle"><textPath startOffset="19.985693538727396" xlink:href="#id26">February</textPath></text><path d="M 110.99172775467656 82.1063720568725 l 1.58162298713233 -2.5747520234935646 a24.02173447806216,24.02173447806216 0 0,0 0.350466636708434,0.21946217575495033 l -1.6257087762130271 2.5471455064156703" fill="#ff1f03" stroke="none" /><path d="M 111.60114157652 82.49532879139004 l 12.082851592444191 -18.23151135542045 a42.871975423080926,42.871975423080926 0 0,0 0.6116305989653884,0.41297571068159306 l -12.39488688581612 18.02082373244019" fill="#e8ff1a" stroke="none" /><path d="M 111.90073688211348 82.69761687909136 l 2.7584812649156647 -4.0105331417883905 a25.86760669839643,25.86760669839643 0 0,0 0.3646948969948832,0.255492081460408 l -2.827107301494199 3.9624562175640468" fill="#ff3905" stroke="none" /><path d="M 112.19680574252982 82.90503203632743 l 2.11546979757435 -2.965029465997663 a24.642336090846594,24.642336090846594 0 0,0 0.3431793621786741,0.2493344013565597 l -2.166194476106813 2.9281758298244287" fill="#ff2803" stroke="none" /><path d="M 112.77801427241765 83.33499621200491 l 2.9819113840117732 -3.888989591856176 a25.90061583351161,25.90061583351161 0 0,0 0.35146820542252405,0.27432650922857704 l -3.0484121445937276 3.8370846934043747" fill="#ff3a05" stroke="none" /><path d="M 113.06298171725822 83.55741782278167 l 1.6035698214846492 -2.0184387559720767 a23.577892779769247,23.577892779769247 0 0,0 0.31560312044780753,0.2551957746762691 l -1.638076340496948 1.9905368840316777" fill="#ff1902" stroke="none" /><path d="M 113.6212207817346 84.01681056812373 l 3.5291331966981017 -4.141097579798983 a26.440907119723104,26.440907119723104 0 0,0 0.34386550970482405,0.29819678150902296 l -3.5998925050496897 4.079735804870289" fill="#ff4106" stroke="none" /><path d="M 113.89432698308785 84.25364557470407 l 35.730179819938506 -40.49279074899624 a75.00288744694247,75.00288744694247 0 0,0 0.9607120296096272,0.8625367458857821 l -36.42190283714412 39.87175499434116" fill="#42ffd6" stroke="none" /><path d="M 114.42810811169701 84.74124197986012 l 2.773449961253837 -2.933122035967409 a25.036735013034235,25.036735013034235 0 0,0 0.31059471410147993,0.29879186888175424 l -2.823527918967735 2.884947080323353" fill="#ff2d04" stroke="none" /><path d="M 114.68862486808459 84.99185889309783 l 2.741763678192722 -2.801404252177716 a24.91983849809865,24.91983849809865 0 0,0 0.30397954708690433,0.30267416230733124 l -2.789579025446949 2.753794239220266" fill="#ff2c04" stroke="none" /><path d="M 115.4437574822437 85.77008943001954 l 3.280740408560704 -3.022881100717568 a25.46106128375732,25.46106128375732 0 0,0 0.2942042112937408,0.32486763829247484 l -3.3322882604704804 2.9659606751555443" fill="#ff3304" stroke="none" /><path d="M 115.9244219780498 86.31012108654704 l 0.9263871090703765 -0.7963948310110228 a22.221653716366813,22.221653716366813 0 0,0 0.24686076013299693,0.2922052761055142 l -0.9399584826904905 0.7803306052764021" fill="#ff0500" stroke="none" /><path d="M 116.38621287248628 86.86637796730983 l 3.2465824336473017 -2.6021501681508057 a25.1607070307911,25.1607070307911 0 0,0 0.2679566408003423,0.3402777223935208 l -3.290893155041608 2.5458800518042466" fill="#ff2f04" stroke="none" /><path d="M 116.60985879189232 87.15038557335679 l 3.2161509140256177 -2.488058429689824 a25.06620971561212,25.06620971561212 0 0,0 0.2610753881996406,0.3435446079577103 l -3.2585022424493717 2.43232904585108" fill="#ff2e04" stroke="none" /><path d="M 117.04232023915458 87.72973835380427 l 13.797565776406229 -9.934078211259965 a38.001727302297446,38.001727302297446 0 0,0 0.37764194826874814,0.534147754345523 l -13.966520344478859 9.69510395658265" fill="#ffda14" stroke="none" /><path d="M 117.65298651832404 88.62581576622439 l 1.6695551073513064 -1.0757288779291299 a22.986103440230014,22.986103440230014 0 0,0 0.21144194545182568,0.3344503798117551 l -1.6878246490490878 1.0468308504031685" fill="#ff1001" stroke="none" /><line stroke="#e1ed5e" stroke-width="0.3" x1="172.23445277983987" x2="176.4835382374775" y1="55.19839476539836" y2="52.563006222186495" /><path d="M 173.08426987136738 54.67131705675599 a86.0,86.0 0 0,1 12.851231095245387,41.99856678651699" fill="none" id="id27" stroke="none" /><text fill="#e1ed5e" style="font-size:6.75px; font-family:Arial;" text-anchor="middle"><textPath startOffset="22.20632615414155" xlink:href="#id27">March</textPath></text><path d="M 117.84615892207809 88.93136811851018 l 1.73807732186399 -1.0779988086667798 a23.045236956507704,23.045236956507704 0 0,0 0.2061826642322981,0.33891008791660643 l -1.756375784382512 1.047920947543092" fill="#ff1101" stroke="none" /><path d="M 118.3937258080291 89.86733742301442 l 2.239804182198097 -1.233854426971382 a23.55717021755474,23.55717021755474 0 0,0 0.19259882531838782,0.35685637262278114 l -2.2607111067349495 1.1951170710161423" fill="#ff1802" stroke="none" /><path d="M 118.56541770881063 90.18545643968196 l 2.1600878765104117 -1.1419229500053358 a23.443351726214658,23.443351726214658 0 0,0 0.1855268529526847,0.35837882789333037 l -2.1794241626232127 1.1045713998516606" fill="#ff1702" stroke="none" /><path d="M 118.73160827565052 90.50648371742162 l 15.786096648886788 -8.000677964709269 a38.697787864673344,38.697787864673344 0 0,0 0.29601962577680413,0.5967575022036267 l -15.921476287617 7.727760874006693" fill="#ffe315" stroke="none" /><path d="M 119.34039704204932 91.81776055985345 l 0.8095142748209172 -0.34247692084089154 a21.878978840727974,21.878978840727974 0 0,0 0.14375355205220125,0.3481106287238727 l -0.8152895137593159 0.3284917216637157" fill="#ff0000" stroke="none" /><path d="M 119.47837535516314 92.15188598940014 l 4.531642056861113 -1.8258629310194525 a25.88564787662633,25.88564787662633 0 0,0 0.16296426737052694,0.41472628509563114 l -4.56239987411334 1.747587641028037" fill="#ff3905" stroke="none" /><path d="M 119.61058180528143 92.48833698450437 l 2.256897875439067 -0.8644851269084018 a23.416800065128932,23.416800065128932 0 0,0 0.1409417181051019,0.37765373270805574 l -2.271444182045794 0.8255082571710128" fill="#ff1602" stroke="none" /><path d="M 119.85752413597 93.16781622104841 l 4.050911073981662 -1.393757285154165 a25.283974778080232,25.283974778080232 0 0,0 0.1380537605838566,0.41276317233141524 l -4.074302128337289 1.3238210099004357" fill="#ff3104" stroke="none" /><path d="M 119.97218684219823 93.5106431181261 l 2.363851844436241 -0.7680620232338189 a23.48550091812066,23.48550091812066 0 0,0 0.1216152112286848,0.38555345394829893 l -2.376722539433132 0.7272584028591007" fill="#ff1702" stroke="none" /><path d="M 120.18372546131832 94.20196356495316 l 3.8550678955645905 -1.1074181602846147 a25.01097537528479,25.01097537528479 0 0,0 0.11530444273173758,0.4148114292227919 l -3.8735591088626915 1.0408954276428708" fill="#ff2d04" stroke="none" /><path d="M 120.37134235888165 94.90015583598534 l 3.4033288676448827 -0.8520031011267228 a24.508355265031543,24.508355265031543 0 0,0 0.09892879266808222,0.41012371370809686 l -3.4174904605737844 0.7932941557592198" fill="#ff2603" stroke="none" /><path d="M 120.45610955862082 95.25157060432595 l 2.353473481835541 -0.5463063556177344 a23.41604802599026,23.41604802599026 0 0,0 0.08776068637501387,0.3934139488778971 l -2.3625285552125925 0.5057142371898735" fill="#ff1602" stroke="none" /><path d="M 120.53481517161879 95.60439243477599 l 6.18691404906826 -1.3243482335824384 a27.327069123563543,27.327069123563543 0 0,0 0.09450052382536824,0.46081811535042994 l -6.208793868808625 1.2176544620685967" fill="#ff4e07" stroke="none" /><path d="M 120.67395015179393 96.31383870115 l 3.45828815623654 -0.616612106936142 a24.51282898274114,24.51282898274114 0 0,0 0.07048971957813631,0.41603431514439837 l -3.4683897373348995 0.5569920034759057" fill="#ff2603" stroke="none" /><path d="M 120.78858239683441 97.02765380044208 l 4.803777040030424 -0.686842813804959 a25.852630925714315,25.852630925714315 0 0,0 0.05919513951378382,0.44107254619310743 l -4.814888178602044 0.6040519255471872" fill="#ff3905" stroke="none" /><path d="M 120.87857604477298 97.74499172005257 l 4.378276215627523 -0.4728794289881041 a25.40373904479929,25.40373904479929 0 0,0 0.04321402748089644,0.43515935933397376 l -4.385767368790647 0.39744453894969534" fill="#ff3304" stroke="none" /><path d="M 120.94382443527127 98.46500227214037 l 2.411873073729153 -0.17676903755100296 a23.41834220415896,23.41834220415896 0 0,0 0.026004852374159067,0.40228355620814005 l -2.4145585171077277 0.1352264170898277" fill="#ff1602" stroke="none" /><path d="M 120.96714384426684 98.82574320788733 l 2.4107155336110706 -0.13501119228350958 a23.414493198589618,23.414493198589618 0 0,0 0.019073213984247918,0.40260540181247734 l -2.412682355828815 0.09349468384803249" fill="#ff1602" stroke="none" /><line stroke="#e1ed5e" stroke-width="0.3" x1="184.98032266829074" x2="189.97916517819016" y1="98.17113171792111" y2="98.06355123074" /><path d="M 185.9800911702706 98.14961562048488 a86.0,86.0 0 0,1 -9.607161424134198,41.387399972396054" fill="none" id="id28" stroke="none" /><text fill="#e1ed5e" style="font-size:6.75px; font-family:Arial;" text-anchor="middle"><textPath startOffset="21.466115282336823" xlink:href="#id28">April</textPath></text><path d="M 120.99513854157772 99.54816195383933 l 5.957310123308674 -0.12820774491001197 a26.958689548141514,26.958689548141514 0 0,0 0.005991238677947267,0.46402803818369165 l -5.958634369104337 0.02564344866585758" fill="#ff4806" stroke="none" /><path d="M 120.99980553446 99.90962569577887 l 3.37786519082547 -0.0145369068238601 a24.377896471037914,24.377896471037914 0 0,0 -0.001805940934105172,0.4196370721720023 l -3.3776149526018617 -0.04360964355182693" fill="#ff2403" stroke="none" /><path d="M 120.9904718944345 100.63252640178507 l 4.865429127716677 0.14661473047258586 a25.86763766893402,25.86763766893402 0 0,0 -0.0172424645496643,0.4449513948579306 l -4.862184530315809 -0.23034337234452262" fill="#ff3905" stroke="none" /><path d="M 120.89721153311464 102.0752229133903 l 6.253322103137617 0.6209937288846991 a27.284080723296256,27.284080723296256 0 0,0 -0.05043358187323221,0.46695233171166356 l -6.2417062197633335 -0.7285423824811541" fill="#ff4d07" stroke="none" /><path d="M 120.8583938346157 102.4346265915055 l 4.0179500687655825 0.46898184770698587 a25.04522764854736,25.04522764854736 0 0,0 -0.05366654498827343,0.42777516654116166 l -4.009282014530461 -0.5380747685355425" fill="#ff2e04" stroke="none" /><path d="M 120.76222939487914 103.15116336523771 l 2.578291545262541 0.3913172187731105 a23.607818333028707,23.607818333028707 0 0,0 -0.06443613000983894,0.40124384308035643 l -2.5711736608914135 -0.43564029154667183" fill="#ff1902" stroke="none" /><path d="M 120.5718875245553 104.21870165774334 l 3.3285125545606 0.6825820632639231 a24.397780760872774,24.397780760872774 0 0,0 -0.08790864448865365,0.4106799207563138 l -3.316269871347503 -0.7397758034364059" fill="#ff2403" stroke="none" /><path d="M 120.49622156327973 104.57218783832717 l 4.734122761685669 1.0560628674558215 a25.850483182398364,25.850483182398364 0 0,0 -0.10061923170242876,0.4334650167241085 l -4.715242964052687 -1.137396541528495" fill="#ff3905" stroke="none" /><path d="M 120.41448212921028 104.9243191809786 l 51.09244675903415 12.324364340285744 a73.55785452448421,73.55785452448421 0 0,0 -0.30750225580855145,1.228318655971091 l -50.87273318893053 -13.202010835654232" fill="#40ffc7" stroke="none" /><path d="M 120.13307415673323 105.97154293290107 l 4.641130574028099 1.3765761882290495 a25.84097665840041,25.84097665840041 0 0,0 -0.13015635727393818,0.4253585063676617 l -4.616747444248028 -1.4562616671487685" fill="#ff3905" stroke="none" /><path d="M 120.02730092923936 106.31721596034902 l 4.601604671072084 1.45148517885766 a25.825098421097323,25.825098421097323 0 0,0 -0.13737445770974555,0.4227951069216649 l -4.575937962346091 -1.53047918575712" fill="#ff3905" stroke="none" /><path d="M 119.79798401119884 107.00284435728193 l 5.860377677490449 2.0729036212546097 a27.216184999325456,27.216184999325456 0 0,0 -0.16002564549572254,0.44032184812426245 l -5.823827770989499 -2.1734732663850034" fill="#ff4c07" stroke="none" /><path d="M 119.67450827220406 107.3425965602758 l 2.3082125741912427 0.8614331536603784 a23.463719214090727,23.463719214090727 0 0,0 -0.14447586268541326,0.3771808876724465 l -2.2930424319123226 -0.9010376081659688" fill="#ff1702" stroke="none" /><path d="M 119.41010516605496 108.01547362559984 l 5.4259695953983424 2.2406739073872606 a26.87041443251099,26.87041443251099 0 0,0 -0.18022245275119972,0.425992641451928 l -5.386596161454833 -2.333741074505352" fill="#ff4706" stroke="none" /><path d="M 119.26925614724726 108.34839909993367 l 5.248527129978648 2.2739227105116195 a26.719944189194717,26.719944189194717 0 0,0 -0.1864783826861574,0.420459524101997 l -5.208607662561217 -2.363930571106304" fill="#ff4506" stroke="none" /><path d="M 118.97047184881838 109.00673069616215 l 4.370426900617799 2.0749751737766604 a25.83799062271034,25.83799062271034 0 0,0 -0.1942115559721132,0.40013332886528824 l -4.334062088030971 -2.149897458607224" fill="#ff3905" stroke="none" /><path d="M 118.81262510543309 109.33194174019688 l 4.821342272127147 2.3916112153877527 a26.381927676081187,26.381927676081187 0 0,0 -0.2053033197346491,0.4050829269674526 l -4.779460282606229 -2.4742483540578997" fill="#ff4006" stroke="none" /><path d="M 118.64920377521936 109.65438752849418 l 2.9942175801440127 1.5500574293553384 a24.371648995898468,24.371648995898468 0 0,0 -0.19607280801334998,0.3708958607942972 l -2.9670922639057697 -1.60136830523577" fill="#ff2403" stroke="none" /><line stroke="#e1ed5e" stroke-width="0.3" x1="174.80103733775053" x2="179.2010983576182" y1="140.37084112569926" y2="142.7455964860345" /><path d="M 175.68104954172406 140.8457921977663 a86.0,86.0 0 0,1 -30.038265399797805,32.042727171017184" fill="none" id="id29" stroke="none" /><text fill="#e1ed5e" style="font-size:6.75px; font-family:Arial;" text-anchor="middle"><textPath startOffset="22.206326154141568" xlink:href="#id29">May</textPath></text><path d="M 118.48025628344425 109.97397251340804 l 6.702209169097852 3.617246915107969 a28.6160411626512,28.6160411626512 0 0,0 -0.237681554613001,0.4314610608970153 l -6.638951205033342 -3.7320784944027894" fill="#ff5f08" stroke="none" /><path d="M 118.12598468904814 110.60418214915192 l 5.6502221020876675 3.30552989984061 a27.54610859378763,27.54610859378763 0 0,0 -0.24295552912680393,0.40720744159244876 l -5.592485697262636 -3.402299435319163" fill="#ff5107" stroke="none" /><path d="M 117.75023020441432 111.22182372390056 l 4.093032718122075 2.5876448434736776 a25.842398441637542,25.842398441637542 0 0,0 -0.24094361588310115,0.3739498425065311 l -4.047884238861924 -2.6577162859016616" fill="#ff3905" stroke="none" /><path d="M 117.14729908036423 112.12312394758627 l 3.992936825126053 2.8230024926384214 a25.89008052723986,25.89008052723986 0 0,0 -0.26040515163695077,0.36167997994553497 l -3.9437518811134997 -2.8913160780350875" fill="#ff3905" stroke="none" /><path d="M 116.93607887273984 112.41649034213515 l 6.269665898586082 4.596533038323903 a28.774112582944525,28.774112582944525 0 0,0 -0.2962894122337494,0.3969280866108565 l -6.189615219657241 -4.703774004444075" fill="#ff6209" stroke="none" /><path d="M 116.498646956653 112.99209946851258 l 3.8097769648808484 3.000064272580879 a25.849204693736176,25.849204693736176 0 0,0 -0.27828772232768306,0.34720672229721067 l -3.7575713304983114 -3.0651988284563396" fill="#ff3905" stroke="none" /><path d="M 116.0416608686014 113.55231037782055 l 5.983854936845362 5.055278254804078 a28.83341293043483,28.83341293043483 0 0,0 -0.3235623681759871,0.3763761330268716 l -5.895950059098596 -5.157531486992477" fill="#ff6209" stroke="none" /><path d="M 115.56566222782051 114.09645910891815 l 3.598393476515984 3.258750302884339 a25.85467703852497,25.85467703852497 0 0,0 -0.3015807624141533,0.3273063546766002 l -3.541766306106109 -3.320207912362274" fill="#ff3905" stroke="none" /><path d="M 115.07121518719521 114.62390073753431 l 3.5578524443392414 3.4522551989713697 a25.957457006824725,25.957457006824725 0 0,0 -0.3139114074571912,0.3179905984330411 l -3.4979004118265147 -3.5129862913850753" fill="#ff3a05" stroke="none" /><path d="M 114.81725581225074 114.88116024355365 l 2.729245405816718 2.7410162004736214 a24.868068031515282,24.868068031515282 0 0,0 -0.30593650286971247,0.2994232591563389 l -2.681658950571211 -2.787589562552532" fill="#ff2b04" stroke="none" /><path d="M 114.29624159901734 115.38237550388516 l 8.494008395170187 9.139326987635801 a33.47699789228762,33.47699789228762 0 0,0 -0.4254774199975434,0.38866353519549707 l -8.33543142570578 -9.284183289417882" fill="#ffa10e" stroke="none" /><path d="M 113.48314897796784 116.09983520530334 l 3.190605167396238 3.809808634778643 a25.969366475502635,25.969366475502635 0 0,0 -0.3451821869563266,0.2840614399814147 l -3.12455285189522 -3.8641651936172363" fill="#ff3b05" stroke="none" /><path d="M 112.92097659922987 116.55440617244103 l 3.218733862036708 4.123854517027862 a26.231292741974286,26.231292741974286 0 0,0 -0.3583335381975977,0.274754876963979 l -3.1472715953456167 -4.178648735819213" fill="#ff3e05" stroke="none" /><path d="M 112.34349029814194 116.9893568818739 l 8.65785860977151 11.916520060485194 a35.72962884999961,35.72962884999961 0 0,0 -0.5006787312693795,0.35722098091589266 l -8.451452550653247 -12.063785303245306" fill="#ffbe11" stroke="none" /><path d="M 112.04921762599082 117.19931262002967 l 36.14765287797247 51.597937860089026 a84.0,84.0 0 0,0 -1.1913724615084669,0.8194368425396235 l -35.25412353184112 -52.21251549199374" fill="#4dd2ff" stroke="none" /><path d="M 111.7513745106137 117.40417183066458 l 4.122741435167234 6.105915549389124 a28.367442000960487,28.367442000960487 0 0,0 -0.40703942890076256,0.2697635382937647 l -4.017027307526507 -6.175977108774207" fill="#ff5c08" stroke="none" /><path d="M 111.45004920935366 117.60387380957326 l 2.002641247685082 3.07896002589185 a24.67295069500934,24.67295069500934 0 0,0 -0.3580141463794372,0.22850156707242353 l -1.9493452992587141 -3.112976021788082" fill="#ff2803" stroke="none" /><line stroke="#e1ed5e" stroke-width="0.3" x1="143.8653032363475" x2="146.44561519142675" y1="172.8068346515853" y2="177.08958963109032" /><path d="M 144.38136562736335 173.6633856474863 a86.0,86.0 0 0,1 -40.68145358897372,12.25698825130547" fill="none" id="id30" stroke="none" /><text fill="#e1ed5e" style="font-size:6.75px; font-family:Arial;" text-anchor="middle"><textPath startOffset="21.466115282336833" xlink:href="#id30">June</textPath></text><path d="M 110.8373102113329 117.98757091392108 l 1.5248417515661894 2.530904680584112 a23.95476240491888,23.95476240491888 0 0,0 -0.35502341439486557,0.20975409101811898 l -1.4810504661429416 -2.5567773438959804" fill="#ff1e03" stroke="none" /><path d="M 110.21172684928248 118.3499491758327 l 2.2838072513676955 4.1038844466291176 a25.69655651650058,25.69655651650058 0 0,0 -0.3883571834221574,0.21176330108399108 l -2.2128272560768893 -4.14258839947288" fill="#ff3705" stroke="none" /><path d="M 109.89434966115114 118.52300852407294 l 2.679407525469233 5.016063726613595 a26.68683743366995,26.68683743366995 0 0,0 -0.4070493720381407,0.21294899310895032 l -2.5926672509045963 -5.061442138667262" fill="#ff4506" stroke="none" /><path d="M 109.2508944713604 118.85261126421891 l 2.1377391628671654 4.35654795831919 a25.852776405480796,25.852776405480796 0 0,0 -0.4011948727413652,0.19259791948812124 l -2.062431622125567 -4.392700154306872" fill="#ff3905" stroke="none" /><path d="M 108.92500713936063 119.00905698771935 l 1.0329119920609757 2.19996271305979 a23.43037921366127,23.43037921366127 0 0,0 -0.366553782999692,0.16826686344742203 l -0.9948902132938644 -2.2174166468412864" fill="#ff1602" stroke="none" /><path d="M 107.93186726928326 119.44442032107085 l 1.8286373638473492 4.482777170913979 a25.841405350982928,25.841405350982928 0 0,0 -0.413313496326386,0.1644659700067031 l -1.7512027914790969 -4.513589985326751" fill="#ff3905" stroke="none" /><path d="M 106.91757812671514 119.82793768551818 l 0.3127598726508834 0.896467398250707 a21.949459074456076,21.949459074456076 0 0,0 -0.3578078184210455,0.1213878388623437 l -0.29728232129261095 -0.9017182240111737" fill="#ff0100" stroke="none" /><path d="M 106.57524785965236 119.94407469862006 l 0.9323963741102682 2.828149345986913 a23.97788376563965,23.97788376563965 0 0,0 -0.3930987414476284,0.12585780336242353 l -0.8835762875716995 -2.8437799960090433" fill="#ff1e03" stroke="none" /><path d="M 105.88484417918355 120.15858648285463 l 0.6787488477989811 2.3250602619000844 a23.422107598736137,23.422107598736137 0 0,0 -0.3879914862333608,0.109650269551752 l -0.6386261934610146 -2.3363993247903556" fill="#ff1602" stroke="none" /><path d="M 105.53697534728816 120.25689768951611 l 0.7674157619203608 2.8075730158626224 a23.910565785383273,23.910565785383273 0 0,0 -0.3979510123702794,0.10510247928745814 l -0.718974306738584 -2.8203668444536647" fill="#ff1d03" stroke="none" /><path d="M 105.18746579009965 120.34920634021253 l 0.7250004055269386 2.844005810498466 a23.934960755813144,23.934960755813144 0 0,0 -0.4001090168156359,0.09833706172926822 l -0.6759381039680916 -2.856064130541764" fill="#ff1e03" stroke="none" /><path d="M 104.13013068566511 120.58985236759428 l 0.474791454014875 2.3669677033445775 a23.414117444011758,23.414117444011758 0 0,0 -0.39584618899265533,0.07586486424231259 l -0.4339776504505153 -2.3747897659353585" fill="#ff1602" stroke="none" /><path d="M 103.7750983002368 120.6578951692458 l 0.4415436073753318 2.416191799095153 a23.456205115056292,23.456205115056292 0 0,0 -0.3978072179566601,0.06916388396319674 l -0.3998874179466218 -2.423434261579356" fill="#ff1702" stroke="none" /><path d="M 103.06178313531738 120.77559828337769 l 1.4981413625181121 10.165574027881659 a31.27537458482316,31.27537458482316 0 0,0 -0.5332770208927251,0.07390733586445065 l -1.3229357504385566 -10.189855929238712" fill="#ff830c" stroke="none" /><path d="M 101.98527174616119 120.90594882070398 l 0.3504129248531404 3.6900311946000683 a24.70663181811004,24.70663181811004 0 0,0 -0.4237254208933312,0.036560812258263575 l -0.2868431862182675 -3.6955162591369954" fill="#ff2904" stroke="none" /><path d="M 101.26447882468166 120.96189622390904 l 0.2934821296181922 4.865199657398089 a25.87404344120482,25.87404344120482 0 0,0 -0.44480182860299483,0.02299117383124117 l -0.20969223260171782 -4.869530637991533" fill="#ff3905" stroke="none" /><line stroke="#e1ed5e" stroke-width="0.3" x1="102.19456741930631" x2="102.32365962044197" y1="184.97166512339345" y2="189.96999836594603" /><path d="M 102.22038585953345 185.97133177190398 a86.0,86.0 0 0,1 -42.740103519485714,-10.115201625700543" fill="none" id="id31" stroke="none" /><text fill="#e1ed5e" style="font-size:6.75px; font-family:Arial;" text-anchor="middle"><textPath startOffset="22.20632615414155" xlink:href="#id31">July</textPath></text><path d="M 100.54218724476979 120.99299961872073 l 0.12166257325998839 4.710664772543551 a25.712235603300734,25.712235603300734 0 0,0 -0.4425446861909429,0.007618808106911369 l -0.04055819717637752 -4.712061057929622" fill="#ff3705" stroke="none" /><path d="M 100.18074693466247 120.99922214144158 l 0.06533381161009466 7.590497874332137 a28.59077904349614,28.59077904349614 0 0,0 -0.492161492545095,0.0 l 0.06533381161008943 -7.590497874332137" fill="#ff5f08" stroke="none" /><path d="M 99.09653310690486 120.98055641714683 l -0.42117525888220847 9.780647578808505 a30.78971172504825,30.78971172504825 0 0,0 -0.5293073001357865,-0.02735914145359516 l 0.5894706274314839 -9.771948630592709" fill="#ff7d0b" stroke="none" /><path d="M 98.73552117531835 120.96189622390904 l -0.19718256809309703 3.268793789862003 a24.274735684875985,24.274735684875985 0 0,0 -0.4168749362007078,-0.02875013632916543 l 0.2534202650727349 -3.2649153090165526" fill="#ff2303" stroke="none" /><path d="M 98.37488393609728 120.93702456842531 l -1.5111381291434465 19.46860094421819 a40.52715957763864,40.52715957763864 0 0,0 -0.6950517527467551,-0.0599719898522404 l 1.8460341996317433 -19.439704702087287" fill="#fffa17" stroke="none" /><path d="M 98.01472825383883 120.90594882070398 l -0.6992264265125857 7.363219627248486 a28.396345102456408,28.396345102456408 0 0,0 -0.48620952735151085,-0.05039760550079599 l 0.8258685504696899 -7.350092653291929" fill="#ff5c08" stroke="none" /><path d="M 97.2962882734958 120.8252237178851 l -1.606234299996247 12.371950867710419 a33.4757828171031,33.4757828171031 0 0,0 -0.5707962244973229,-0.07910715560828248 l 1.8189591156804008 -12.342469146609531" fill="#ffa00e" stroke="none" /><path d="M 96.93821686468263 120.77559828337769 l -2.021540453707429 13.71707613624612 a34.86523723322282,34.86523723322282 0 0,0 -0.592981540308962,-0.09261152131494665 l 2.257357857624908 -13.680246307584069" fill="#ffb310" stroke="none" /><path d="M 96.22490169976321 120.6578951692458 l -3.548293964669071 19.416788364743624 a40.73833986081277,40.73833986081277 0 0,0 -0.6887347609130171,-0.13199765613152276 l 3.881996340153783 -19.352833510263633" fill="#fffc17" stroke="none" /><path d="M 95.51606077576429 120.51570834832081 l -1.0469770822821216 4.790313916696109 a25.90339356276002,25.90339356276002 0 0,0 -0.43478210920093024,-0.098954992525111 l 1.1292793408759145 -4.7715821905933105" fill="#ff3a05" stroke="none" /><path d="M 95.16358092515715 120.4354850818985 l -1.1479257131836567 4.850369338115007 a25.984357146023388,25.984357146023388 0 0,0 -0.43436777257956166,-0.10675703038465438 l 1.231246770506429 -4.8298910494163225" fill="#ff3b05" stroke="none" /><path d="M 94.46302465271185 120.25689768951611 l -5.0757046051736205 18.569349227744905 a40.2505456541089,40.2505456541089 0 0,0 -0.6667576333260368,-0.18843236723992288 l 5.394593406604271 -18.47922806716646" fill="#fff617" stroke="none" /><path d="M 93.42475214034765 119.94407469862007 l -1.3381263890290882 4.058811656782458 a25.273702645043194,25.273702645043194 0 0,0 -0.4119977798163228,-0.13977201596287256 l 1.4077939017826369 -4.035176653921463" fill="#ff3104" stroke="none" /><path d="M 93.08242187328487 119.8279376855182 l -1.397336462605056 4.005202369776784 a25.2419565312001,25.2419565312001 0 0,0 -0.4090163837620053,-0.14665872311115338 l 1.4660724069967879 -3.9805561056256726" fill="#ff3004" stroke="none" /><path d="M 92.7421414339146 119.70592522655815 l -2.550353102424085 6.92450356810911 a28.3792310311983,28.3792310311983 0 0,0 -0.45694586302723855,-0.172777826093659 l 2.6691691862116063 -6.879577491908818" fill="#ff5c08" stroke="none" /><path d="M 91.7346041902142 119.30500536409082 l -1.6301357811448822 3.8074135496257497 a25.141707450175904,25.141707450175904 0 0,0 -0.3963761685979346,-0.173759663891499 l 1.6954326244005602 -3.7787893324397985" fill="#ff2f04" stroke="none" /><path d="M 91.40352486487194 119.15986991738527 l -16.346344141237743 36.43281955078472 a60.931858298904885,60.931858298904885 0 0,0 -0.9532412156454675,-0.4375862885736614 l 16.97105335265063 -36.14604619187699" fill="#30ff3a" stroke="none" /><path d="M 90.7491055286396 118.85261126421891 l -9.32253918145756 18.99861767179184 a42.162637128409415,42.162637128409415 0 0,0 -0.6487948299921552,-0.3253191965178 l 9.648187919132477 -18.835330634364738" fill="#f1ff19" stroke="none" /><line stroke="#e1ed5e" stroke-width="0.3" x1="58.666819895761336" x2="56.23545636021788" y1="174.27360380694188" y2="178.64263932499728" /><path d="M 58.180547188652646 175.14741091055294 a86.0,86.0 0 0,1 -31.652253787137756,-30.449443065178592" fill="none" id="id32" stroke="none" /><text fill="#e1ed5e" style="font-size:6.75px; font-family:Arial;" text-anchor="middle"><textPath startOffset="22.20632615414155" xlink:href="#id32">August</textPath></text><path d="M 88.8546689885994 117.79835938074946 l -2.0258878030684957 3.2352093578204855 a24.817171856171914,24.817171856171914 0 0,0 -0.3601068517287863,-0.22983723063930506 l 2.0812764568442055 -3.199857698357376" fill="#ff2a04" stroke="none" /><path d="M 88.54995079064634 117.60387380957326 l -13.676120750632995 21.0263466555197 a46.08273375180582,46.08273375180582 0 0,0 -0.6612330300309056,-0.43822919636940544 l 14.036028479403862 -20.787819438058975" fill="#c3ff1e" stroke="none" /><line stroke="#e1ed5e" stroke-width="0.3" x1="26.63291911575756" x2="22.317208475507996" y1="142.92168965132927" y2="145.44649492493687" /><path d="M 25.769776987707644 143.4266507060508 a86.0,86.0 0 0,1 -11.730757126820373,-40.83630448921669" fill="none" id="id33" stroke="none" /><text fill="#e1ed5e" style="font-size:6.75px; font-family:Arial;" text-anchor="middle"><textPath startOffset="21.46611528233685" xlink:href="#id33">September</textPath></text><line stroke="#e1ed5e" stroke-width="0.3" x1="15.007084014347285" x2="10.007500721073583" y1="101.09737516637583" y2="101.16192664675087" /><path d="M 14.007167355692545 101.11028546245083 a86.0,86.0 0 0,1 10.666146001902534,-42.60595125391555" fill="none" id="id34" stroke="none" /><text fill="#e1ed5e" style="font-size:6.75px; font-family:Arial;" text-anchor="middle"><textPath startOffset="22.20632615414155" xlink:href="#id34">October</textPath></text><line stroke="#e1ed5e" stroke-width="0.3" x1="26.266209847984243" x2="21.928928074336255" y1="57.711370442889674" y2="55.22380399835377" /><path d="M 25.398753493254645 57.213857153982495 a86.0,86.0 0 0,1 29.58750427330803,-30.492523968695096" fill="none" id="id35" stroke="none" /><text fill="#e1ed5e" style="font-size:6.75px; font-family:Arial;" text-anchor="middle"><textPath startOffset="21.46611528233685" xlink:href="#id35">November</textPath></text><line stroke="#e1ed5e" stroke-width="0.3" x1="56.762969772571076" x2="54.21961505331055" y1="26.818313649435495" y2="22.513508569990535" /><path d="M 56.25429882871897 25.957352633546506 a86.0,86.0 0 0,1 42.265352541879196,-11.944610805530505" fill="none" id="id36" stroke="none" /><text fill="#e1ed5e" style="font-size:6.75px; font-family:Arial;" text-anchor="middle"><textPath startOffset="22.20632615414155" xlink:href="#id36">December</textPath></text></svg>